<?xml version="1.0" encoding="UTF-8" standalone="no"?>
<!-- Created with Inkscape (http://www.inkscape.org/) -->

<svg
   width="103.08064mm"
   height="103.04095mm"
   viewBox="0 0 103.08064 103.04095"
   version="1.1"
   id="svg1"
   xmlns="http://www.w3.org/2000/svg"
   xmlns:svg="http://www.w3.org/2000/svg">
  <defs
     id="defs1">
    <clipPath
       clipPathUnits="userSpaceOnUse"
       id="clipPath6">
      <rect
         style="fill:none;stroke:#000000;stroke-width:8.19314;stroke-linecap:round;stroke-dasharray:none"
         id="rect7"
         width="65"
         height="45"
         x="40"
         y="40" />
    </clipPath>
    <clipPath
       clipPathUnits="userSpaceOnUse"
       id="clipPath7">
      <rect
         style="fill:none;stroke:#000000;stroke-width:8.19314;stroke-linecap:round;stroke-dasharray:none"
         id="rect8"
         width="65"
         height="45"
         x="40"
         y="40" />
    </clipPath>
    <clipPath
       clipPathUnits="userSpaceOnUse"
       id="clipPath7-9">
      <rect
         style="fill:none;stroke:#000000;stroke-width:8.19314;stroke-linecap:round;stroke-dasharray:none"
         id="rect8-4"
         width="65"
         height="45"
         x="40"
         y="40" />
    </clipPath>
    <clipPath
       clipPathUnits="userSpaceOnUse"
       id="clipPath7-5">
      <rect
         style="fill:none;stroke:#000000;stroke-width:8.19314;stroke-linecap:round;stroke-dasharray:none"
         id="rect8-6"
         width="65"
         height="45"
         x="40"
         y="40" />
    </clipPath>
  </defs>
  <g
     id="layer1"
     transform="translate(1.5806447,1.512015)">
    <path
       style="fill:none;stroke:none;stroke-width:13;stroke-linecap:round;stroke-dasharray:none"
       d="M 5,45.013134 C 44.883876,62.683449 69.664966,63.539942 94.999999,65.013136"
       id="path3-84-3-1" />
    <path
       style="fill:none;stroke:#ffffff;stroke-width:12.5;stroke-linecap:round;stroke-dasharray:none"
       d="M 5,45.013134 C 44.883876,62.683449 69.664966,63.539942 94.999999,65.013136"
       id="path3-84-3" />
    <path
       style="fill:none;stroke:#abc837;stroke-width:10;stroke-linecap:round;stroke-dasharray:none"
       d="M 5,45.013134 C 44.883876,62.683449 69.664966,63.539942 94.999999,65.013136"
       id="path3-84" />
    <path
       style="fill:none;stroke:#000000;stroke-width:7;stroke-linecap:round;stroke-dasharray:none"
       d="M 5,45.013134 C 44.883876,62.683449 69.664966,63.539942 94.999999,65.013136"
       id="path3-6" />
    <path
       style="fill:none;stroke:none;stroke-width:13;stroke-linecap:round;stroke-dasharray:none"
       d="M 5,94.999999 C 15,50 50,15 94.999999,5"
       id="path1-55" />
    <path
       style="fill:none;stroke:#ffffff;stroke-width:12.5;stroke-linecap:round;stroke-dasharray:none"
       d="M 5,94.999999 C 15,50 50,15 94.999999,5"
       id="path1" />
    <path
       style="fill:none;stroke:#2c89a0;stroke-width:10;stroke-linecap:round;stroke-dasharray:none"
       d="M 5,94.999999 C 15,50 50,15 94.999999,5"
       id="path1-50" />
    <path
       style="fill:none;stroke:#000000;stroke-width:7;stroke-linecap:round;stroke-dasharray:none"
       d="M 5,94.999999 C 15,50 50,15 94.999999,5"
       id="path1-3" />
    <path
       style="fill:none;stroke:none;stroke-width:13;stroke-linecap:round;stroke-dasharray:none"
       d="M 4.9193553,4.987985 C 50,5 50,95.040952 94.949948,95.028937"
       id="path2-4" />
    <path
       d="M 31.367103,2.2589622"
       style="fill:none;stroke:#ff00ff;stroke-width:10;stroke-linecap:round;stroke-dasharray:none"
       id="path1-5" />
    <path
       style="fill:none;stroke:#ffffff;stroke-width:12.5;stroke-linecap:round;stroke-dasharray:none"
       d="M 4.9193553,4.987985 C 50,5 50,95.040952 94.949948,95.028937"
       id="path2" />
    <path
       style="fill:none;stroke:#5fd38d;stroke-width:10;stroke-linecap:round;stroke-dasharray:none"
       d="M 4.9193553,4.987985 C 50,5 50,95.040952 94.949948,95.028937"
       id="path2-3" />
    <path
       style="fill:none;stroke:#000000;stroke-width:7;stroke-linecap:round;stroke-dasharray:none"
       d="M 4.9193553,4.987985 C 50,5 50,95.040952 94.949948,95.028937"
       id="path2-0" />
    <path
       d="M 31.367103,2.2589622"
       style="fill:none;stroke:#000000;stroke-width:7;stroke-linecap:round;stroke-dasharray:none"
       id="path1-5-6" />
    <path
       style="fill:none;stroke:none;stroke-width:13;stroke-linecap:round;stroke-dasharray:none"
       d="M 5,45.013134 C 44.883876,62.683449 69.664966,63.539942 94.999999,65.013136"
       id="path3-8-3"
       clip-path="url(#clipPath7-5)" />
    <path
       style="fill:none;stroke:#ffffff;stroke-width:12.5;stroke-linecap:round;stroke-dasharray:none"
       d="M 5,45.013134 C 44.883876,62.683449 69.664966,63.539942 94.999999,65.013136"
       id="path3-8"
       clip-path="url(#clipPath7)" />
    <path
       style="fill:none;stroke:#abc837;stroke-width:10;stroke-linecap:round;stroke-dasharray:none"
       d="M 5,45.013134 C 44.883876,62.683449 69.664966,63.539942 94.999999,65.013136"
       id="path3-8-6"
       clip-path="url(#clipPath7-9)" />
    <path
       style="fill:none;stroke:#000000;stroke-width:7;stroke-linecap:round;stroke-dasharray:none"
       d="M 5,45.013134 C 44.883876,62.683449 69.664966,63.539942 94.999999,65.013136"
       id="path3-6-7"
       clip-path="url(#clipPath6)" />
  </g>
</svg>
